<?xml version="1.0" encoding="UTF-8" standalone="no"?>
<!-- Created with Inkscape (http://www.inkscape.org/) -->

<svg
   width="15.180085mm"
   height="17.76399mm"
   viewBox="0 0 15.180085 17.76399"
   version="1.1"
   id="svg8"
   inkscape:version="1.2.2 (b0a8486541, 2022-12-01)"
   sodipodi:docname="favicon_colored.svg"
   xmlns:inkscape="http://www.inkscape.org/namespaces/inkscape"
   xmlns:sodipodi="http://sodipodi.sourceforge.net/DTD/sodipodi-0.dtd"
   xmlns="http://www.w3.org/2000/svg"
   xmlns:svg="http://www.w3.org/2000/svg"
   xmlns:rdf="http://www.w3.org/1999/02/22-rdf-syntax-ns#"
   xmlns:cc="http://creativecommons.org/ns#"
   xmlns:dc="http://purl.org/dc/elements/1.1/">
  <defs
     id="defs2" />
  <sodipodi:namedview
     id="base"
     pagecolor="#ffffff"
     bordercolor="#666666"
     borderopacity="1.0"
     inkscape:pageopacity="0.0"
     inkscape:pageshadow="2"
     inkscape:zoom="1.4"
     inkscape:cx="-138.21429"
     inkscape:cy="-6.0714286"
     inkscape:document-units="mm"
     inkscape:current-layer="layer1"
     showgrid="false"
     inkscape:window-width="1920"
     inkscape:window-height="1016"
     inkscape:window-x="0"
     inkscape:window-y="0"
     inkscape:window-maximized="1"
     inkscape:showpageshadow="2"
     inkscape:pagecheckerboard="0"
     inkscape:deskcolor="#d1d1d1" />
  <metadata
     id="metadata5">
    <rdf:RDF>
      <cc:Work
         rdf:about="">
        <dc:format>image/svg+xml</dc:format>
        <dc:type
           rdf:resource="http://purl.org/dc/dcmitype/StillImage" />
      </cc:Work>
    </rdf:RDF>
  </metadata>
  <g
     inkscape:label="Layer 1"
     inkscape:groupmode="layer"
     id="layer1"
     transform="translate(-222.73055,-197.99522)">
    <path
       style="fill:#000000;stroke-width:0.08466666"
       d=""
       id="path3728"
       inkscape:connector-curvature="0" />
    <path
       style="fill:#000000;stroke-width:0.08466666"
       d=""
       id="path3726"
       inkscape:connector-curvature="0" />
    <path
       style="fill:#cc9e75;fill-opacity:1;stroke-width:0.185;stroke:none;stroke-opacity:1;stroke-dasharray:none"
       d="m 237.07682,215.55813 c -0.22101,-0.11505 -0.82911,-0.53267 -1.35133,-0.92803 -1.48923,-1.12747 -2.352,-1.52159 -5.27416,-2.40924 -3.23194,-0.98175 -4.3722,-1.91186 -4.25919,-3.47422 0.0433,-0.59837 0.37304,-1.28213 1.07883,-2.23699 0.66842,-0.9043 1.02467,-1.50501 1.20172,-2.0263 0.14756,-0.43449 0.14756,-0.43449 -0.22573,-0.4602 -0.20531,-0.0141 -0.97818,0.0525 -1.71749,0.14816 -1.59377,0.20616 -2.7759,0.22542 -3.19101,0.052 -1.17496,-0.49093 -0.60339,-2.2868 1.34037,-4.21137 0.64661,-0.64023 2.35693,-2.01672 2.50581,-2.01672 0.20222,0 0.0587,0.24486 -0.54583,0.93133 -1.1835,1.34391 -2.66448,3.58889 -2.66448,4.03902 0,0.11819 0.10403,0.12865 0.8255,0.083 0.45402,-0.0287 1.22555,-0.11567 1.7145,-0.19321 0.48895,-0.0776 1.28905,-0.14537 1.778,-0.15073 1.00436,-0.011 1.28509,0.0858 1.62315,0.5598 0.17274,0.24218 0.19647,0.37089 0.19149,1.03845 -0.007,0.97413 -0.23424,1.56608 -1.24888,3.25717 -0.4043,0.67385 -0.7351,1.28581 -0.7351,1.35992 0,0.35775 0.88301,0.76773 3.45003,1.60185 2.21727,0.72047 3.40092,1.23651 4.31626,1.88175 1.21405,0.85581 2.28172,2.57822 1.965,3.17002 -0.1345,0.25133 -0.27017,0.24863 -0.77746,-0.0154 z"
       id="path3743"
       inkscape:connector-curvature="0" />
  </g>
</svg>
